<?xml version="1.0" encoding="UTF-8"?>
<svg xmlns="http://www.w3.org/2000/svg" viewBox="0 0 246.94 299.14">
  <g>
    <path fill="#e11d48" d="m246.94,122.38v-45.88l-15.36-9.56-55.35-34.45L124,0l-52.22,32.5-16.58,10.32L0,77.17v145.27l43.11,26.83,12.09,7.53,15.83,9.85,52.22,32.5h.01l52.22-32.5h.01l58.4-36.35h.01l13.03-8.11v-48.79l-13.04-8.11-27.92-17.38,25.58-15.94,15.37-9.57Zm-93.18-6.99h-.01l-52.22,32.5,52.22,32.5,27.93,17.39-58.42,36.35-27.92-17.38-40.15-24.98v-83.93l37.12-23.1,6.1-3.79,25.6-15.94,55.33,34.45-25.58,15.94Z"/>
  </g>
</svg>